<svg width="500" height="500" viewBox="0 0 500 500" fill="none" xmlns="http://www.w3.org/2000/svg">
<rect width="500" height="500" fill="#1A2E6E"/>
<rect x="146" y="150" width="200" height="200" rx="30" fill="#F5C518"/>
<path d="M247.787 289.977L239.548 281.81L261.175 260.183H210.5V248.18H261.175L239.548 226.589L247.787 218.386L283.582 254.182L247.787 289.977Z" fill="#1A2E6E"/>
<path d="M129.793 381.364H141.17L153.188 410.682H153.699L165.716 381.364H177.094V425H168.145V396.598H167.783L156.49 424.787H150.396L139.104 396.491H138.741V425H129.793V381.364ZM193.857 425.618C191.769 425.618 189.908 425.256 188.275 424.531C186.641 423.793 185.348 422.706 184.397 421.271C183.459 419.822 182.99 418.018 182.99 415.859C182.99 414.041 183.324 412.514 183.992 411.278C184.659 410.043 185.569 409.048 186.719 408.295C187.87 407.543 189.176 406.974 190.64 406.591C192.117 406.207 193.665 405.938 195.284 405.781C197.188 405.582 198.722 405.398 199.887 405.227C201.051 405.043 201.897 404.773 202.422 404.418C202.948 404.062 203.211 403.537 203.211 402.841V402.713C203.211 401.364 202.784 400.32 201.932 399.581C201.094 398.842 199.901 398.473 198.353 398.473C196.719 398.473 195.419 398.835 194.453 399.56C193.488 400.27 192.848 401.165 192.536 402.244L184.141 401.562C184.567 399.574 185.405 397.855 186.655 396.406C187.905 394.943 189.517 393.821 191.492 393.04C193.48 392.244 195.782 391.847 198.395 391.847C200.213 391.847 201.953 392.06 203.615 392.486C205.292 392.912 206.776 393.572 208.069 394.467C209.375 395.362 210.405 396.513 211.158 397.919C211.911 399.311 212.287 400.98 212.287 402.926V425H203.679V420.462H203.424C202.898 421.484 202.195 422.386 201.314 423.168C200.434 423.935 199.375 424.538 198.14 424.979C196.904 425.405 195.476 425.618 193.857 425.618ZM196.456 419.354C197.792 419.354 198.971 419.091 199.993 418.565C201.016 418.026 201.819 417.301 202.401 416.392C202.983 415.483 203.275 414.453 203.275 413.303V409.83C202.99 410.014 202.6 410.185 202.103 410.341C201.62 410.483 201.073 410.618 200.462 410.746C199.851 410.859 199.24 410.966 198.63 411.065C198.019 411.151 197.465 411.229 196.968 411.3C195.902 411.456 194.972 411.705 194.176 412.045C193.381 412.386 192.763 412.848 192.323 413.43C191.882 413.999 191.662 414.709 191.662 415.561C191.662 416.797 192.11 417.741 193.005 418.395C193.914 419.034 195.064 419.354 196.456 419.354ZM246.559 401.605L238.25 402.116C238.108 401.406 237.802 400.767 237.333 400.199C236.865 399.616 236.247 399.155 235.48 398.814C234.727 398.459 233.825 398.281 232.774 398.281C231.368 398.281 230.181 398.58 229.216 399.176C228.25 399.759 227.767 400.54 227.767 401.52C227.767 402.301 228.079 402.962 228.704 403.501C229.329 404.041 230.402 404.474 231.922 404.801L237.845 405.994C241.027 406.648 243.399 407.699 244.961 409.148C246.524 410.597 247.305 412.5 247.305 414.858C247.305 417.003 246.673 418.885 245.409 420.504C244.159 422.124 242.44 423.388 240.252 424.297C238.079 425.192 235.572 425.639 232.731 425.639C228.399 425.639 224.947 424.737 222.376 422.933C219.819 421.115 218.321 418.643 217.88 415.518L226.808 415.05C227.078 416.371 227.731 417.379 228.768 418.075C229.805 418.757 231.133 419.098 232.752 419.098C234.343 419.098 235.622 418.793 236.588 418.182C237.568 417.557 238.065 416.754 238.079 415.774C238.065 414.95 237.717 414.276 237.035 413.75C236.353 413.21 235.302 412.798 233.882 412.514L228.214 411.385C225.018 410.746 222.639 409.638 221.076 408.061C219.528 406.484 218.754 404.474 218.754 402.031C218.754 399.929 219.322 398.118 220.458 396.598C221.609 395.078 223.221 393.906 225.295 393.082C227.383 392.259 229.826 391.847 232.625 391.847C236.758 391.847 240.011 392.72 242.383 394.467C244.77 396.214 246.162 398.594 246.559 401.605ZM262.353 425.618C260.265 425.618 258.404 425.256 256.771 424.531C255.137 423.793 253.844 422.706 252.893 421.271C251.955 419.822 251.487 418.018 251.487 415.859C251.487 414.041 251.82 412.514 252.488 411.278C253.156 410.043 254.065 409.048 255.215 408.295C256.366 407.543 257.673 406.974 259.136 406.591C260.613 406.207 262.161 405.938 263.781 405.781C265.684 405.582 267.218 405.398 268.383 405.227C269.548 405.043 270.393 404.773 270.918 404.418C271.444 404.062 271.707 403.537 271.707 402.841V402.713C271.707 401.364 271.281 400.32 270.428 399.581C269.59 398.842 268.397 398.473 266.849 398.473C265.215 398.473 263.915 398.835 262.95 399.56C261.984 400.27 261.344 401.165 261.032 402.244L252.637 401.562C253.063 399.574 253.901 397.855 255.151 396.406C256.401 394.943 258.013 393.821 259.988 393.04C261.977 392.244 264.278 391.847 266.891 391.847C268.71 391.847 270.45 392.06 272.112 392.486C273.788 392.912 275.272 393.572 276.565 394.467C277.871 395.362 278.901 396.513 279.654 397.919C280.407 399.311 280.783 400.98 280.783 402.926V425H272.175V420.462H271.92C271.394 421.484 270.691 422.386 269.81 423.168C268.93 423.935 267.871 424.538 266.636 424.979C265.4 425.405 263.972 425.618 262.353 425.618ZM264.952 419.354C266.288 419.354 267.467 419.091 268.489 418.565C269.512 418.026 270.315 417.301 270.897 416.392C271.479 415.483 271.771 414.453 271.771 413.303V409.83C271.487 410.014 271.096 410.185 270.599 410.341C270.116 410.483 269.569 410.618 268.958 410.746C268.347 410.859 267.737 410.966 267.126 411.065C266.515 411.151 265.961 411.229 265.464 411.3C264.398 411.456 263.468 411.705 262.673 412.045C261.877 412.386 261.259 412.848 260.819 413.43C260.379 413.999 260.158 414.709 260.158 415.561C260.158 416.797 260.606 417.741 261.501 418.395C262.41 419.034 263.56 419.354 264.952 419.354ZM287.825 425V392.273H296.625V397.983H296.966C297.563 395.952 298.564 394.418 299.97 393.381C301.376 392.33 302.996 391.804 304.828 391.804C305.283 391.804 305.773 391.832 306.298 391.889C306.824 391.946 307.286 392.024 307.683 392.124V400.178C307.257 400.05 306.668 399.936 305.915 399.837C305.162 399.737 304.473 399.688 303.848 399.688C302.513 399.688 301.32 399.979 300.268 400.561C299.232 401.129 298.408 401.925 297.797 402.947C297.2 403.97 296.902 405.149 296.902 406.484V425H287.825ZM320.771 425.618C318.683 425.618 316.822 425.256 315.189 424.531C313.555 423.793 312.262 422.706 311.311 421.271C310.373 419.822 309.904 418.018 309.904 415.859C309.904 414.041 310.238 412.514 310.906 411.278C311.574 410.043 312.483 409.048 313.633 408.295C314.784 407.543 316.091 406.974 317.554 406.591C319.031 406.207 320.579 405.938 322.199 405.781C324.102 405.582 325.636 405.398 326.801 405.227C327.966 405.043 328.811 404.773 329.336 404.418C329.862 404.062 330.125 403.537 330.125 402.841V402.713C330.125 401.364 329.699 400.32 328.846 399.581C328.008 398.842 326.815 398.473 325.267 398.473C323.633 398.473 322.333 398.835 321.368 399.56C320.402 400.27 319.762 401.165 319.45 402.244L311.055 401.562C311.481 399.574 312.319 397.855 313.569 396.406C314.819 394.943 316.431 393.821 318.406 393.04C320.395 392.244 322.696 391.847 325.309 391.847C327.127 391.847 328.868 392.06 330.529 392.486C332.206 392.912 333.69 393.572 334.983 394.467C336.289 395.362 337.319 396.513 338.072 397.919C338.825 399.311 339.201 400.98 339.201 402.926V425H330.593V420.462H330.338C329.812 421.484 329.109 422.386 328.228 423.168C327.348 423.935 326.289 424.538 325.054 424.979C323.818 425.405 322.39 425.618 320.771 425.618ZM323.37 419.354C324.706 419.354 325.885 419.091 326.907 418.565C327.93 418.026 328.733 417.301 329.315 416.392C329.897 415.483 330.189 414.453 330.189 413.303V409.83C329.904 410.014 329.514 410.185 329.017 410.341C328.534 410.483 327.987 410.618 327.376 410.746C326.765 410.859 326.154 410.966 325.544 411.065C324.933 411.151 324.379 411.229 323.882 411.3C322.816 411.456 321.886 411.705 321.091 412.045C320.295 412.386 319.677 412.848 319.237 413.43C318.797 413.999 318.576 414.709 318.576 415.561C318.576 416.797 319.024 417.741 319.919 418.395C320.828 419.034 321.978 419.354 323.37 419.354ZM363.651 392.273V399.091H343.942V392.273H363.651ZM348.417 384.432H357.493V414.943C357.493 415.781 357.621 416.435 357.877 416.903C358.132 417.358 358.488 417.678 358.942 417.862C359.411 418.047 359.951 418.139 360.561 418.139C360.988 418.139 361.414 418.104 361.84 418.033C362.266 417.947 362.593 417.884 362.82 417.841L364.248 424.595C363.793 424.737 363.154 424.901 362.33 425.085C361.506 425.284 360.505 425.405 359.326 425.447C357.138 425.533 355.221 425.241 353.573 424.574C351.939 423.906 350.668 422.869 349.759 421.463C348.85 420.057 348.402 418.281 348.417 416.136V384.432Z" fill="white"/>
<path d="M169.278 453.382V448.818H190.781V453.382H182.766V475H177.294V453.382H169.278ZM198.516 475H192.584L201.623 448.818H208.756L217.782 475H211.85L205.292 454.801H205.087L198.516 475ZM198.145 464.709H212.157V469.03H198.145V464.709ZM223.813 475V448.818H229.348V470.436H240.573V475H223.813ZM247.119 475V448.818H264.761V453.382H252.654V459.621H263.853V464.185H252.654V470.436H264.812V475H247.119ZM293.941 448.818V475H289.16L277.769 458.521H277.577V475H272.042V448.818H276.9L288.201 465.284H288.431V448.818H293.941ZM300.397 453.382V448.818H321.9V453.382H313.884V475H308.413V453.382H300.397Z" fill="#F5C518"/>
</svg>
